<?xml version="1.0" encoding="UTF-8" standalone="no"?>
<!DOCTYPE svg PUBLIC "-//W3C//DTD SVG 1.1//EN"
 "http://www.w3.org/Graphics/SVG/1.1/DTD/svg11.dtd">
<!-- Generated by graphviz version 2.43.0 (0)
 -->
<!-- Title: G Pages: 1 -->
<svg width="278pt" height="218pt"
 viewBox="0.00 0.00 278.00 218.00" xmlns="http://www.w3.org/2000/svg" xmlns:xlink="http://www.w3.org/1999/xlink">
<g id="graph0" class="graph" transform="scale(1 1) rotate(0) translate(4 214)">
<title>G</title>
<polygon fill="white" stroke="transparent" points="-4,4 -4,-214 274,-214 274,4 -4,4"/>
<!-- g0 -->
<g id="node1" class="node">
<title>g0</title>
<ellipse fill="none" stroke="black" cx="171" cy="-192" rx="27" ry="18"/>
<text text-anchor="middle" x="171" y="-188.3" font-family="Times,serif" font-size="14.00">a</text>
</g>
<!-- g5 -->
<g id="node6" class="node">
<title>g5</title>
<ellipse fill="none" stroke="black" cx="151" cy="-105" rx="27" ry="18"/>
<text text-anchor="middle" x="151" y="-101.3" font-family="Times,serif" font-size="14.00">*</text>
</g>
<!-- g0&#45;&gt;g5 -->
<g id="edge3" class="edge">
<title>g0&#45;&gt;g5</title>
<path fill="none" stroke="black" d="M166.95,-173.8C164.2,-162.09 160.49,-146.34 157.35,-132.97"/>
<polygon fill="black" stroke="black" points="160.67,-131.82 154.97,-122.89 153.86,-133.42 160.67,-131.82"/>
<text text-anchor="middle" x="167" y="-144.8" font-family="Times,serif" font-size="14.00">1</text>
</g>
<!-- g1 -->
<g id="node2" class="node">
<title>g1</title>
<ellipse fill="none" stroke="black" cx="27" cy="-192" rx="27" ry="18"/>
<text text-anchor="middle" x="27" y="-188.3" font-family="Times,serif" font-size="14.00">b</text>
</g>
<!-- g4 -->
<g id="node5" class="node">
<title>g4</title>
<ellipse fill="none" stroke="black" cx="60" cy="-105" rx="27" ry="18"/>
<text text-anchor="middle" x="60" y="-101.3" font-family="Times,serif" font-size="14.00">*</text>
</g>
<!-- g1&#45;&gt;g4 -->
<g id="edge1" class="edge">
<title>g1&#45;&gt;g4</title>
<path fill="none" stroke="black" d="M33.52,-174.21C38.18,-162.22 44.53,-145.85 49.84,-132.16"/>
<polygon fill="black" stroke="black" points="53.14,-133.35 53.49,-122.76 46.61,-130.81 53.14,-133.35"/>
<text text-anchor="middle" x="50" y="-144.8" font-family="Times,serif" font-size="14.00">1</text>
</g>
<!-- g1&#45;&gt;g4 -->
<g id="edge2" class="edge">
<title>g1&#45;&gt;g4</title>
<path fill="none" stroke="black" d="M23.92,-173.75C22.9,-163.83 22.9,-151.33 27,-141 29.08,-135.76 32.36,-130.85 36.06,-126.46"/>
<polygon fill="black" stroke="black" points="38.64,-128.82 43,-119.16 33.57,-123.99 38.64,-128.82"/>
<text text-anchor="middle" x="32" y="-144.8" font-family="Times,serif" font-size="14.00">1</text>
</g>
<!-- g2 -->
<g id="node3" class="node">
<title>g2</title>
<ellipse fill="none" stroke="black" cx="243" cy="-192" rx="27" ry="18"/>
<text text-anchor="middle" x="243" y="-188.3" font-family="Times,serif" font-size="14.00">c</text>
</g>
<!-- g2&#45;&gt;g5 -->
<g id="edge4" class="edge">
<title>g2&#45;&gt;g5</title>
<path fill="none" stroke="black" d="M227.81,-176.96C213.16,-163.43 190.8,-142.77 173.97,-127.22"/>
<polygon fill="black" stroke="black" points="175.93,-124.27 166.21,-120.06 171.18,-129.41 175.93,-124.27"/>
<text text-anchor="middle" x="207" y="-144.8" font-family="Times,serif" font-size="14.00">1</text>
</g>
<!-- g3 -->
<g id="node4" class="node">
<title>g3</title>
<ellipse fill="none" stroke="black" cx="99" cy="-192" rx="27" ry="18"/>
<text text-anchor="middle" x="99" y="-188.3" font-family="Times,serif" font-size="14.00">&#45;4</text>
</g>
<!-- g3&#45;&gt;g5 -->
<g id="edge5" class="edge">
<title>g3&#45;&gt;g5</title>
<path fill="none" stroke="black" d="M108.78,-175.01C116.41,-162.55 127.13,-145.01 135.87,-130.74"/>
<polygon fill="black" stroke="black" points="139.03,-132.27 141.26,-121.92 133.06,-128.62 139.03,-132.27"/>
<text text-anchor="middle" x="133" y="-144.8" font-family="Times,serif" font-size="14.00">1</text>
</g>
<!-- g6 -->
<g id="node7" class="node">
<title>g6</title>
<ellipse fill="none" stroke="black" cx="95" cy="-18" rx="27" ry="18"/>
<text text-anchor="middle" x="95" y="-14.3" font-family="Times,serif" font-size="14.00">+</text>
</g>
<!-- g4&#45;&gt;g6 -->
<g id="edge6" class="edge">
<title>g4&#45;&gt;g6</title>
<path fill="none" stroke="black" d="M66.91,-87.21C71.88,-75.14 78.68,-58.64 84.34,-44.89"/>
<polygon fill="black" stroke="black" points="87.65,-46.05 88.22,-35.47 81.17,-43.38 87.65,-46.05"/>
<text text-anchor="middle" x="84" y="-57.8" font-family="Times,serif" font-size="14.00">1</text>
</g>
<!-- g5&#45;&gt;g6 -->
<g id="edge7" class="edge">
<title>g5&#45;&gt;g6</title>
<path fill="none" stroke="black" d="M140.47,-88.01C132.18,-75.43 120.48,-57.68 111.03,-43.33"/>
<polygon fill="black" stroke="black" points="113.91,-41.34 105.49,-34.92 108.06,-45.19 113.91,-41.34"/>
<text text-anchor="middle" x="131" y="-57.8" font-family="Times,serif" font-size="14.00">1</text>
</g>
</g>
</svg>
