<?xml version="1.0" encoding="UTF-8" standalone="no"?>
<!DOCTYPE svg PUBLIC "-//W3C//DTD SVG 1.1//EN"
 "http://www.w3.org/Graphics/SVG/1.1/DTD/svg11.dtd">
<!-- Generated by graphviz version 2.43.0 (0)
 -->
<!-- Title: G Pages: 1 -->
<svg width="262pt" height="131pt"
 viewBox="0.00 0.00 262.29 131.00" xmlns="http://www.w3.org/2000/svg" xmlns:xlink="http://www.w3.org/1999/xlink">
<g id="graph0" class="graph" transform="scale(1 1) rotate(0) translate(4 127)">
<title>G</title>
<polygon fill="white" stroke="transparent" points="-4,4 -4,-127 258.29,-127 258.29,4 -4,4"/>
<!-- g0 -->
<g id="node1" class="node">
<title>g0</title>
<ellipse fill="none" stroke="black" cx="54.6" cy="-105" rx="54.69" ry="18"/>
<text text-anchor="middle" x="54.6" y="-101.3" font-family="Times,serif" font-size="14.00">input2val</text>
</g>
<!-- g2 -->
<g id="node3" class="node">
<title>g2</title>
<ellipse fill="none" stroke="black" cx="122.6" cy="-18" rx="27" ry="18"/>
<text text-anchor="middle" x="122.6" y="-14.3" font-family="Times,serif" font-size="14.00">&#45;</text>
</g>
<!-- g0&#45;&gt;g2 -->
<g id="edge1" class="edge">
<title>g0&#45;&gt;g2</title>
<path fill="none" stroke="black" d="M68.03,-87.21C78.32,-74.35 92.63,-56.45 104.02,-42.22"/>
<polygon fill="black" stroke="black" points="106.82,-44.32 110.33,-34.33 101.35,-39.95 106.82,-44.32"/>
<text text-anchor="middle" x="98.6" y="-57.8" font-family="Times,serif" font-size="14.00">1</text>
</g>
<!-- g1 -->
<g id="node2" class="node">
<title>g1</title>
<ellipse fill="none" stroke="black" cx="190.6" cy="-105" rx="63.89" ry="18"/>
<text text-anchor="middle" x="190.6" y="-101.3" font-family="Times,serif" font-size="14.00">&#45;3.1415926</text>
</g>
<!-- g1&#45;&gt;g2 -->
<g id="edge2" class="edge">
<title>g1&#45;&gt;g2</title>
<path fill="none" stroke="black" d="M177.16,-87.21C166.87,-74.35 152.56,-56.45 141.17,-42.22"/>
<polygon fill="black" stroke="black" points="143.84,-39.95 134.86,-34.33 138.37,-44.32 143.84,-39.95"/>
<text text-anchor="middle" x="165.6" y="-57.8" font-family="Times,serif" font-size="14.00">1</text>
</g>
</g>
</svg>
