<?xml version="1.0" encoding="UTF-8" standalone="no"?>
<!DOCTYPE svg PUBLIC "-//W3C//DTD SVG 1.1//EN"
 "http://www.w3.org/Graphics/SVG/1.1/DTD/svg11.dtd">
<!-- Generated by graphviz version 2.43.0 (0)
 -->
<!-- Title: G Pages: 1 -->
<svg width="311pt" height="566pt"
 viewBox="0.00 0.00 311.00 566.00" xmlns="http://www.w3.org/2000/svg" xmlns:xlink="http://www.w3.org/1999/xlink">
<g id="graph0" class="graph" transform="scale(1 1) rotate(0) translate(4 562)">
<title>G</title>
<polygon fill="white" stroke="transparent" points="-4,4 -4,-562 307,-562 307,4 -4,4"/>
<!-- g0 -->
<g id="node1" class="node">
<title>g0</title>
<ellipse fill="none" stroke="black" cx="132" cy="-453" rx="27" ry="18"/>
<text text-anchor="middle" x="132" y="-449.3" font-family="Times,serif" font-size="14.00">b</text>
</g>
<!-- g1 -->
<g id="node2" class="node">
<title>g1</title>
<ellipse fill="none" stroke="black" cx="181" cy="-366" rx="27" ry="18"/>
<text text-anchor="middle" x="181" y="-362.3" font-family="Times,serif" font-size="14.00">*</text>
</g>
<!-- g0&#45;&gt;g1 -->
<g id="edge1" class="edge">
<title>g0&#45;&gt;g1</title>
<path fill="none" stroke="black" d="M147.74,-438.22C153.83,-432.21 160.42,-424.77 165,-417 169.18,-409.9 172.41,-401.59 174.83,-393.79"/>
<polygon fill="black" stroke="black" points="178.25,-394.57 177.56,-384 171.5,-392.69 178.25,-394.57"/>
<text text-anchor="middle" x="176" y="-405.8" font-family="Times,serif" font-size="14.00">1</text>
</g>
<!-- g0&#45;&gt;g1 -->
<g id="edge2" class="edge">
<title>g0&#45;&gt;g1</title>
<path fill="none" stroke="black" d="M138.17,-435.29C142.13,-425.33 147.71,-412.6 154,-402 156.36,-398.03 159.09,-394 161.91,-390.15"/>
<polygon fill="black" stroke="black" points="164.76,-392.17 168.06,-382.11 159.2,-387.92 164.76,-392.17"/>
<text text-anchor="middle" x="159" y="-405.8" font-family="Times,serif" font-size="14.00">1</text>
</g>
<!-- g11 -->
<g id="node12" class="node">
<title>g11</title>
<ellipse fill="none" stroke="black" cx="127" cy="-192" rx="27" ry="18"/>
<text text-anchor="middle" x="127" y="-188.3" font-family="Times,serif" font-size="14.00">&#45;</text>
</g>
<!-- g0&#45;&gt;g11 -->
<g id="edge12" class="edge">
<title>g0&#45;&gt;g11</title>
<path fill="none" stroke="black" d="M131.66,-434.6C130.81,-390.46 128.56,-273.83 127.53,-220.42"/>
<polygon fill="black" stroke="black" points="131.03,-220.25 127.33,-210.32 124.03,-220.39 131.03,-220.25"/>
<text text-anchor="middle" x="134" y="-318.8" font-family="Times,serif" font-size="14.00">1</text>
</g>
<!-- g7 -->
<g id="node8" class="node">
<title>g7</title>
<ellipse fill="none" stroke="black" cx="214" cy="-279" rx="27" ry="18"/>
<text text-anchor="middle" x="214" y="-275.3" font-family="Times,serif" font-size="14.00">+</text>
</g>
<!-- g1&#45;&gt;g7 -->
<g id="edge7" class="edge">
<title>g1&#45;&gt;g7</title>
<path fill="none" stroke="black" d="M187.52,-348.21C192.18,-336.22 198.53,-319.85 203.84,-306.16"/>
<polygon fill="black" stroke="black" points="207.14,-307.35 207.49,-296.76 200.61,-304.81 207.14,-307.35"/>
<text text-anchor="middle" x="204" y="-318.8" font-family="Times,serif" font-size="14.00">1</text>
</g>
<!-- g2 -->
<g id="node3" class="node">
<title>g2</title>
<ellipse fill="none" stroke="black" cx="69" cy="-540" rx="27" ry="18"/>
<text text-anchor="middle" x="69" y="-536.3" font-family="Times,serif" font-size="14.00">a</text>
</g>
<!-- g4 -->
<g id="node5" class="node">
<title>g4</title>
<ellipse fill="none" stroke="black" cx="204" cy="-453" rx="27" ry="18"/>
<text text-anchor="middle" x="204" y="-449.3" font-family="Times,serif" font-size="14.00">*</text>
</g>
<!-- g2&#45;&gt;g4 -->
<g id="edge3" class="edge">
<title>g2&#45;&gt;g4</title>
<path fill="none" stroke="black" d="M88.06,-527C111.07,-512.51 149.97,-488.02 176.3,-471.44"/>
<polygon fill="black" stroke="black" points="178.44,-474.23 185.04,-465.94 174.71,-468.3 178.44,-474.23"/>
<text text-anchor="middle" x="149" y="-492.8" font-family="Times,serif" font-size="14.00">1</text>
</g>
<!-- g10 -->
<g id="node11" class="node">
<title>g10</title>
<ellipse fill="none" stroke="black" cx="52" cy="-105" rx="27" ry="18"/>
<text text-anchor="middle" x="52" y="-101.3" font-family="Times,serif" font-size="14.00">*</text>
</g>
<!-- g2&#45;&gt;g10 -->
<g id="edge11" class="edge">
<title>g2&#45;&gt;g10</title>
<path fill="none" stroke="black" d="M50.15,-527.09C29.72,-512.56 0,-485.93 0,-454 0,-454 0,-454 0,-191 0,-166.84 15.48,-143.74 29.54,-127.74"/>
<polygon fill="black" stroke="black" points="32.44,-129.76 36.68,-120.05 27.31,-125 32.44,-129.76"/>
<text text-anchor="middle" x="5" y="-318.8" font-family="Times,serif" font-size="14.00">1</text>
</g>
<!-- g3 -->
<g id="node4" class="node">
<title>g3</title>
<ellipse fill="none" stroke="black" cx="204" cy="-540" rx="27" ry="18"/>
<text text-anchor="middle" x="204" y="-536.3" font-family="Times,serif" font-size="14.00">c</text>
</g>
<!-- g3&#45;&gt;g4 -->
<g id="edge4" class="edge">
<title>g3&#45;&gt;g4</title>
<path fill="none" stroke="black" d="M204,-521.8C204,-510.16 204,-494.55 204,-481.24"/>
<polygon fill="black" stroke="black" points="207.5,-481.18 204,-471.18 200.5,-481.18 207.5,-481.18"/>
<text text-anchor="middle" x="209" y="-492.8" font-family="Times,serif" font-size="14.00">1</text>
</g>
<!-- g6 -->
<g id="node7" class="node">
<title>g6</title>
<ellipse fill="none" stroke="black" cx="253" cy="-366" rx="27" ry="18"/>
<text text-anchor="middle" x="253" y="-362.3" font-family="Times,serif" font-size="14.00">*</text>
</g>
<!-- g4&#45;&gt;g6 -->
<g id="edge6" class="edge">
<title>g4&#45;&gt;g6</title>
<path fill="none" stroke="black" d="M213.22,-436.01C220.36,-423.63 230.38,-406.23 238.58,-392.01"/>
<polygon fill="black" stroke="black" points="241.7,-393.62 243.66,-383.21 235.63,-390.12 241.7,-393.62"/>
<text text-anchor="middle" x="236" y="-405.8" font-family="Times,serif" font-size="14.00">1</text>
</g>
<!-- g5 -->
<g id="node6" class="node">
<title>g5</title>
<ellipse fill="none" stroke="black" cx="276" cy="-453" rx="27" ry="18"/>
<text text-anchor="middle" x="276" y="-449.3" font-family="Times,serif" font-size="14.00">&#45;4</text>
</g>
<!-- g5&#45;&gt;g6 -->
<g id="edge5" class="edge">
<title>g5&#45;&gt;g6</title>
<path fill="none" stroke="black" d="M271.46,-435.21C268.24,-423.33 263.87,-407.17 260.19,-393.56"/>
<polygon fill="black" stroke="black" points="263.53,-392.5 257.53,-383.76 256.77,-394.33 263.53,-392.5"/>
<text text-anchor="middle" x="270" y="-405.8" font-family="Times,serif" font-size="14.00">1</text>
</g>
<!-- g6&#45;&gt;g7 -->
<g id="edge8" class="edge">
<title>g6&#45;&gt;g7</title>
<path fill="none" stroke="black" d="M245.48,-348.61C239.87,-336.38 232.1,-319.44 225.68,-305.46"/>
<polygon fill="black" stroke="black" points="228.85,-303.97 221.5,-296.34 222.49,-306.89 228.85,-303.97"/>
<text text-anchor="middle" x="240" y="-318.8" font-family="Times,serif" font-size="14.00">1</text>
</g>
<!-- g8 -->
<g id="node9" class="node">
<title>g8</title>
<ellipse fill="none" stroke="black" cx="214" cy="-192" rx="29.8" ry="18"/>
<text text-anchor="middle" x="214" y="-188.3" font-family="Times,serif" font-size="14.00">sqrt</text>
</g>
<!-- g7&#45;&gt;g8 -->
<g id="edge9" class="edge">
<title>g7&#45;&gt;g8</title>
<path fill="none" stroke="black" d="M214,-260.8C214,-249.16 214,-233.55 214,-220.24"/>
<polygon fill="black" stroke="black" points="217.5,-220.18 214,-210.18 210.5,-220.18 217.5,-220.18"/>
<text text-anchor="middle" x="219" y="-231.8" font-family="Times,serif" font-size="14.00">1</text>
</g>
<!-- g12 -->
<g id="node13" class="node">
<title>g12</title>
<ellipse fill="none" stroke="black" cx="124" cy="-105" rx="27" ry="18"/>
<text text-anchor="middle" x="124" y="-101.3" font-family="Times,serif" font-size="14.00">+</text>
</g>
<!-- g8&#45;&gt;g12 -->
<g id="edge14" class="edge">
<title>g8&#45;&gt;g12</title>
<path fill="none" stroke="black" d="M198.61,-176.04C188.3,-166.05 174.4,-152.67 162,-141 157.11,-136.4 151.84,-131.5 146.82,-126.87"/>
<polygon fill="black" stroke="black" points="148.96,-124.09 139.23,-119.89 144.22,-129.24 148.96,-124.09"/>
<text text-anchor="middle" x="181" y="-144.8" font-family="Times,serif" font-size="14.00">1</text>
</g>
<!-- g13 -->
<g id="node14" class="node">
<title>g13</title>
<ellipse fill="none" stroke="black" cx="196" cy="-105" rx="27" ry="18"/>
<text text-anchor="middle" x="196" y="-101.3" font-family="Times,serif" font-size="14.00">&#45;</text>
</g>
<!-- g8&#45;&gt;g13 -->
<g id="edge16" class="edge">
<title>g8&#45;&gt;g13</title>
<path fill="none" stroke="black" d="M210.36,-173.8C207.88,-162.09 204.54,-146.34 201.71,-132.97"/>
<polygon fill="black" stroke="black" points="205.07,-131.94 199.58,-122.89 198.22,-133.39 205.07,-131.94"/>
<text text-anchor="middle" x="211" y="-144.8" font-family="Times,serif" font-size="14.00">1</text>
</g>
<!-- g9 -->
<g id="node10" class="node">
<title>g9</title>
<ellipse fill="none" stroke="black" cx="55" cy="-192" rx="27" ry="18"/>
<text text-anchor="middle" x="55" y="-188.3" font-family="Times,serif" font-size="14.00">2</text>
</g>
<!-- g9&#45;&gt;g10 -->
<g id="edge10" class="edge">
<title>g9&#45;&gt;g10</title>
<path fill="none" stroke="black" d="M54.39,-173.8C53.98,-162.16 53.43,-146.55 52.96,-133.24"/>
<polygon fill="black" stroke="black" points="56.46,-133.05 52.61,-123.18 49.46,-133.29 56.46,-133.05"/>
<text text-anchor="middle" x="59" y="-144.8" font-family="Times,serif" font-size="14.00">1</text>
</g>
<!-- g14 -->
<g id="node15" class="node">
<title>g14</title>
<ellipse fill="none" stroke="black" cx="68" cy="-18" rx="27" ry="18"/>
<text text-anchor="middle" x="68" y="-14.3" font-family="Times,serif" font-size="14.00">/</text>
</g>
<!-- g10&#45;&gt;g14 -->
<g id="edge18" class="edge">
<title>g10&#45;&gt;g14</title>
<path fill="none" stroke="black" d="M52.85,-86.74C53.55,-77.05 54.79,-64.77 57,-54 57.56,-51.29 58.24,-48.48 58.99,-45.7"/>
<polygon fill="black" stroke="black" points="62.41,-46.49 61.92,-35.91 55.7,-44.49 62.41,-46.49"/>
<text text-anchor="middle" x="62" y="-57.8" font-family="Times,serif" font-size="14.00">1</text>
</g>
<!-- g15 -->
<g id="node16" class="node">
<title>g15</title>
<ellipse fill="none" stroke="black" cx="147" cy="-18" rx="27" ry="18"/>
<text text-anchor="middle" x="147" y="-14.3" font-family="Times,serif" font-size="14.00">/</text>
</g>
<!-- g10&#45;&gt;g15 -->
<g id="edge20" class="edge">
<title>g10&#45;&gt;g15</title>
<path fill="none" stroke="black" d="M61.61,-87.86C68.37,-77.38 78.14,-63.88 89,-54 97.31,-46.44 107.48,-39.65 116.98,-34.11"/>
<polygon fill="black" stroke="black" points="118.77,-37.12 125.8,-29.19 115.36,-31.01 118.77,-37.12"/>
<text text-anchor="middle" x="94" y="-57.8" font-family="Times,serif" font-size="14.00">1</text>
</g>
<!-- g11&#45;&gt;g12 -->
<g id="edge13" class="edge">
<title>g11&#45;&gt;g12</title>
<path fill="none" stroke="black" d="M122.32,-174.04C120.96,-168.35 119.67,-161.95 119,-156 118.16,-148.58 118.44,-140.52 119.19,-133.09"/>
<polygon fill="black" stroke="black" points="122.67,-133.5 120.49,-123.14 115.73,-132.6 122.67,-133.5"/>
<text text-anchor="middle" x="124" y="-144.8" font-family="Times,serif" font-size="14.00">1</text>
</g>
<!-- g11&#45;&gt;g13 -->
<g id="edge15" class="edge">
<title>g11&#45;&gt;g13</title>
<path fill="none" stroke="black" d="M133.24,-174.18C137.54,-163.93 143.93,-150.95 152,-141 156.9,-134.95 163.02,-129.28 169.12,-124.33"/>
<polygon fill="black" stroke="black" points="171.5,-126.92 177.31,-118.06 167.24,-121.36 171.5,-126.92"/>
<text text-anchor="middle" x="157" y="-144.8" font-family="Times,serif" font-size="14.00">1</text>
</g>
<!-- g12&#45;&gt;g14 -->
<g id="edge17" class="edge">
<title>g12&#45;&gt;g14</title>
<path fill="none" stroke="black" d="M117.82,-87.07C113.77,-77.03 107.95,-64.3 101,-54 97.85,-49.33 94.06,-44.69 90.2,-40.38"/>
<polygon fill="black" stroke="black" points="92.69,-37.93 83.28,-33.07 87.61,-42.74 92.69,-37.93"/>
<text text-anchor="middle" x="115" y="-57.8" font-family="Times,serif" font-size="14.00">1</text>
</g>
<!-- g13&#45;&gt;g15 -->
<g id="edge19" class="edge">
<title>g13&#45;&gt;g15</title>
<path fill="none" stroke="black" d="M186.78,-88.01C179.64,-75.63 169.62,-58.23 161.42,-44.01"/>
<polygon fill="black" stroke="black" points="164.37,-42.12 156.34,-35.21 158.3,-45.62 164.37,-42.12"/>
<text text-anchor="middle" x="179" y="-57.8" font-family="Times,serif" font-size="14.00">1</text>
</g>
</g>
</svg>
